<svg width="84" height="71" viewBox="0 0 84 71" fill="none" xmlns="http://www.w3.org/2000/svg">
<g clip-path="url(#clip0_71_7290)">
<path d="M82.9498 34.0712L48.7963 68.9767C46.1401 71.6914 41.8339 71.6914 39.1781 68.9767L29.9386 59.5337C27.004 56.5346 27.004 51.6718 29.9386 48.6721L63.5876 14.2821C65.0233 12.8148 67.3513 12.8148 68.787 14.2821L76.7824 22.4532L76.2267 23.0866C76.2267 23.0866 76.8138 25.1953 78.4915 26.8208C80.5429 28.8079 81.9745 29.0047 81.9745 29.0047L82.637 28.4367L82.9503 28.7573C84.3855 30.2247 84.3856 32.6039 82.9498 34.0712Z" fill="#6562E8"/>
<path d="M35.8345 57.8203L28.6363 50.4637C27.103 53.3723 27.5348 57.0773 29.9386 59.534L37.3365 67.0948L39.1786 68.9775C41.8348 71.6917 46.1406 71.6917 48.7968 68.9775L82.9503 34.0719C84.386 32.6046 84.386 30.2254 82.9503 28.7581L82.6025 28.41L82.0095 29.0486C82.0095 29.0486 80.4148 28.7646 78.4706 26.7557C76.6108 24.8341 76.2271 23.0651 76.2271 23.0651L76.8042 22.4976L75.5161 21.1602L39.6476 57.8189C38.5937 58.8946 36.8879 58.8969 35.8345 57.8203Z" fill="#4646D3"/>
<path d="M41.1602 58.8246C39.5533 60.4669 39.5533 63.1296 41.1602 64.7719C42.7671 66.4142 45.3724 66.4142 46.9793 64.7719L82.0032 29.0547C82.0032 29.0547 80.2869 28.6542 78.4493 26.7762C76.6972 24.9854 76.1845 23.1074 76.1845 23.1074L41.1602 58.8246Z" fill="#FDF2DC"/>
<path d="M48.7963 68.9765L82.9498 34.071C83.4675 33.5419 83.7957 32.8937 83.9401 32.2129L47.6126 69.1236C44.4501 71.8314 39.1781 68.9765 39.1781 68.9765C41.8343 71.6908 46.1406 71.6908 48.7963 68.9765Z" fill="#2C2CC6"/>
<path d="M41.6968 65.2294C41.6668 65.2076 41.6368 65.1848 41.6073 65.1621C41.6373 65.1848 41.6668 65.2076 41.6968 65.2294Z" fill="#DBCDB0"/>
<path d="M42.1908 65.54C42.0205 65.4504 41.8566 65.3451 41.6972 65.2305C41.8561 65.3456 42.0205 65.4504 42.1908 65.54Z" fill="#FDF2DC"/>
<path d="M41.6073 65.1618C41.452 65.0434 41.3008 64.9158 41.16 64.7715C41.3013 64.9163 41.452 65.043 41.6073 65.1618Z" fill="#FDF2DC"/>
<path opacity="0.55" d="M78.4806 26.7763C76.7284 24.9855 76.2371 23.0527 76.2371 23.0527L41.1596 58.8242C39.5527 60.4665 39.5527 63.1292 41.1596 64.7715C41.3008 64.9158 41.4516 65.043 41.6068 65.1618C41.6368 65.1845 41.6663 65.2072 41.6963 65.2291C41.8557 65.3441 42.0196 65.4495 42.1898 65.5386H42.1903L79.3315 27.5796C79.0454 27.3475 78.7812 27.0835 78.4806 26.7763Z" fill="#CABD9A"/>
<path opacity="0.49" d="M41.2127 60.4653C41.2572 60.5108 41.3153 60.533 41.3735 60.533C41.4316 60.533 41.4897 60.5103 41.5342 60.4653L76.7602 24.4637C76.6789 24.3096 76.6053 24.1629 76.5431 24.0293L41.2132 60.1372C41.1242 60.2282 41.1242 60.3748 41.2127 60.4653Z" fill="#B2A383"/>
<path opacity="0.49" d="M40.8068 62.5177C40.8513 62.5631 40.9094 62.5854 40.9675 62.5854C41.0257 62.5854 41.0838 62.5627 41.1283 62.5177L77.3827 25.4844C77.2901 25.3513 77.2038 25.2204 77.1239 25.0928L40.8077 62.1896C40.7183 62.2801 40.7183 62.4272 40.8068 62.5177Z" fill="#B2A383"/>
<path opacity="0.49" d="M42.8791 62.1682C42.9236 62.2137 42.9817 62.236 43.0398 62.236C43.098 62.236 43.1561 62.2132 43.2006 62.1682L78.1464 26.4524C78.0415 26.3355 77.9416 26.2186 77.8467 26.1025L42.8791 61.8401C42.7906 61.9306 42.7906 62.0777 42.8791 62.1682Z" fill="#B2A383"/>
<path opacity="0.49" d="M42.4096 64.3529C42.4536 64.3979 42.5118 64.4206 42.5699 64.4206C42.628 64.4206 42.6861 64.3979 42.7306 64.3524L78.9723 27.2742C78.8615 27.1753 78.7494 27.0709 78.6368 26.9609L42.4092 64.0248C42.3206 64.1157 42.3206 64.2624 42.4096 64.3529Z" fill="#B2A383"/>
<path opacity="0.49" d="M44.6962 64.0256C44.7403 64.0701 44.7984 64.0924 44.856 64.0924C44.9146 64.0924 44.9732 64.0697 45.0172 64.0237L79.9889 28.0699C79.8663 27.9868 79.7406 27.8963 79.6121 27.7998L44.6944 63.698C44.6063 63.7885 44.6072 63.9356 44.6962 64.0256Z" fill="#B2A383"/>
<path opacity="0.49" d="M45.4863 64.5044C45.3977 64.5949 45.3977 64.742 45.4863 64.8325C45.5308 64.878 45.5889 64.9002 45.647 64.9002C45.7051 64.9002 45.7633 64.8775 45.8078 64.8325L81.1354 28.7269C81.0042 28.6656 80.8598 28.5923 80.7068 28.5088L45.4863 64.5044Z" fill="#B2A383"/>
<path d="M50.1844 54.999C50.1844 54.999 48.8636 56.349 47.584 57.6687C46.3613 58.93 45.1766 60.1639 45.2211 60.1639L53.924 69.0584L54.3208 64.5534L54.3322 64.4258L58.8877 63.8931L50.1844 54.999Z" fill="#FFCE55"/>
<path d="M45.2207 60.1642L53.9235 69.0586L54.3204 64.5536L47.584 57.6689C46.3612 58.9302 45.1766 60.1642 45.2207 60.1642Z" fill="#FFB229"/>
<path d="M56.785 37.6034L37.2715 57.5465C34.6153 60.2612 30.3091 60.2612 27.6533 57.5465L18.4138 48.1035C15.4792 45.1043 15.4792 40.2416 18.4138 37.2419L37.4227 17.8144C38.8585 16.347 41.1864 16.347 42.6221 17.8144L50.6176 25.9854L50.0623 26.6188C50.0623 26.6188 50.6489 28.7275 52.3271 30.3531C54.3785 32.3401 55.8101 32.5369 55.8101 32.5369L56.4726 31.9689L56.7859 32.2895C58.2207 33.7569 58.2207 36.1361 56.785 37.6034Z" fill="#239B8C"/>
<path d="M24.3097 46.3896L17.1115 39.0329C15.5782 41.9416 16.01 45.6466 18.4138 48.1033L25.8117 55.6641L27.6538 57.5468C30.31 60.2615 34.6158 60.2615 37.272 57.5468L56.7854 37.6037C58.2211 36.1363 58.2211 33.7571 56.7854 32.2898L56.4376 31.9418L55.8446 32.5803C55.8446 32.5803 54.25 32.2963 52.3057 30.2874C50.4459 28.3658 50.0622 26.5968 50.0622 26.5968L50.6389 26.0288L49.3507 24.6914L28.1219 46.3877C27.0685 47.4639 25.3626 47.4662 24.3097 46.3896Z" fill="#1E7068"/>
<path d="M29.6348 47.3954C28.0279 49.0376 28.0279 51.7004 29.6348 53.3427C31.2417 54.9849 33.8471 54.9849 35.454 53.3427L55.8378 32.5879C55.8378 32.5879 54.1215 32.1874 52.2839 30.3094C50.5317 28.5186 50.0191 26.6406 50.0191 26.6406L29.6348 47.3954Z" fill="#FDF2DC"/>
<path d="M37.2711 57.5463L56.7845 37.6032C57.3021 37.0742 57.6304 36.4259 57.7748 35.7451L36.0869 57.6934C32.9244 60.4011 27.6524 57.5463 27.6524 57.5463C30.3091 60.2605 34.6153 60.2605 37.2711 57.5463Z" fill="#155951"/>
<path d="M30.1719 53.7997C30.142 53.7779 30.112 53.7552 30.0825 53.7324C30.112 53.7552 30.1415 53.7779 30.1719 53.7997Z" fill="#DBCDB0"/>
<path d="M30.6655 54.1093C30.4952 54.0198 30.3313 53.9144 30.172 53.7998C30.3309 53.9149 30.4952 54.0198 30.6655 54.1093Z" fill="#FDF2DC"/>
<path d="M30.0821 53.7321C29.9268 53.6137 29.7756 53.4861 29.6348 53.3418C29.776 53.4861 29.9272 53.6133 30.0821 53.7321Z" fill="#FDF2DC"/>
<path opacity="0.55" d="M52.3157 30.309C50.5635 28.5183 50.0722 26.5859 50.0722 26.5859L29.6348 47.395C28.0279 49.0373 28.0279 51.7 29.6348 53.3423C29.776 53.4866 29.9268 53.6137 30.082 53.7325C30.112 53.7553 30.1415 53.778 30.1715 53.7998C30.3309 53.9144 30.4948 54.0202 30.665 54.1093H30.6655L53.1666 31.1128C52.8801 30.8798 52.6158 30.6162 52.3157 30.309Z" fill="#CABD9A"/>
<path opacity="0.49" d="M29.6875 49.0351C29.732 49.0806 29.7901 49.1028 29.8482 49.1028C29.9063 49.1028 29.9644 49.0801 30.0089 49.0351L50.5948 27.9959C50.5131 27.8418 50.44 27.6952 50.3778 27.5615L29.6879 48.707C29.5989 48.7975 29.5989 48.9446 29.6875 49.0351Z" fill="#B2A383"/>
<path opacity="0.49" d="M29.2816 51.0875C29.3261 51.1329 29.3842 51.1552 29.4423 51.1552C29.5004 51.1552 29.5585 51.1325 29.603 51.0875L51.2174 29.0167C51.1247 28.8835 51.0385 28.7526 50.9586 28.625L29.282 50.7594C29.193 50.8499 29.193 50.997 29.2816 51.0875Z" fill="#B2A383"/>
<path opacity="0.49" d="M31.3543 50.738C31.3988 50.7835 31.4569 50.8058 31.515 50.8058C31.5732 50.8058 31.6313 50.783 31.6758 50.738L51.982 29.9847C51.8771 29.8677 51.7772 29.7508 51.6823 29.6348L31.3548 50.4099C31.2653 50.5004 31.2653 50.6475 31.3543 50.738Z" fill="#B2A383"/>
<path opacity="0.49" d="M30.8844 52.9222C30.9284 52.9672 30.9865 52.9899 31.0446 52.9899C31.1028 52.9899 31.1609 52.9672 31.2054 52.9217L52.807 30.8054C52.6958 30.7066 52.5841 30.6022 52.4715 30.4922L30.8839 52.5936C30.7954 52.6846 30.7954 52.8317 30.8844 52.9222Z" fill="#B2A383"/>
<path opacity="0.49" d="M33.1714 52.5954C33.2155 52.6399 33.2736 52.6627 33.3313 52.6627C33.3898 52.6627 33.4484 52.6399 33.4925 52.594L53.8245 31.6021C53.7019 31.519 53.5762 31.4286 53.4477 31.332L33.1701 52.2677C33.0811 52.3582 33.082 52.5053 33.1714 52.5954Z" fill="#B2A383"/>
<path opacity="0.49" d="M33.961 53.0742C33.8725 53.1647 33.8725 53.3118 33.961 53.4023C34.0055 53.4477 34.0636 53.47 34.1218 53.47C34.1799 53.47 34.238 53.4473 34.2825 53.4023L54.9701 32.2591C54.8389 32.1979 54.6945 32.1245 54.5415 32.041L33.961 53.0742Z" fill="#B2A383"/>
<path d="M40.6311 21.0936L21.1177 41.0368C18.4614 43.7515 14.1552 43.7515 11.4994 41.0368L2.25989 31.5938C-0.674663 28.5946 -0.674663 23.7318 2.25989 20.7321L21.2689 1.3046C22.7046 -0.162732 25.0325 -0.162732 26.4682 1.3046L34.4637 9.47564L33.9079 10.1091C33.9079 10.1091 34.495 12.2177 36.1727 13.8433C38.2241 15.8304 39.6558 16.0271 39.6558 16.0271L40.3182 15.4591L40.6315 15.7798C42.0668 17.2476 42.0668 19.6263 40.6311 21.0936Z" fill="#FF5850"/>
<path d="M8.15578 29.8798L0.957652 22.5232C-0.575689 25.4319 -0.143878 29.1369 2.25988 31.5935L9.65779 39.1543L11.4999 41.037C14.1561 43.7517 18.4619 43.7517 21.1181 41.037L40.6315 21.0939C42.0673 19.6266 42.0673 17.2474 40.6315 15.78L40.2837 15.432L39.6907 16.0705C39.6907 16.0705 38.0961 15.7865 36.1518 13.7776C34.292 11.856 33.9084 10.087 33.9084 10.087L34.4855 9.51904L33.1973 8.18164L11.9685 29.8779C10.9146 30.9541 9.20918 30.9564 8.15578 29.8798Z" fill="#ED482E"/>
<path d="M13.4809 30.8856C11.874 32.5279 11.874 35.1906 13.4809 36.8329C15.0878 38.4752 17.6932 38.4752 19.3001 36.8329L39.6839 16.0782C39.6839 16.0782 37.9676 15.6777 36.1301 13.7997C34.3779 12.0089 33.8652 10.1309 33.8652 10.1309L13.4809 30.8856Z" fill="#FDF2DC"/>
<path d="M21.1177 41.0375L40.6311 21.0944C41.1487 20.5654 41.477 19.9171 41.6214 19.2363L19.9335 41.1846C16.771 43.8924 11.499 41.0375 11.499 41.0375C14.1552 43.7518 18.4614 43.7518 21.1177 41.0375Z" fill="#BC422E"/>
<path d="M14.0181 37.2899C13.9881 37.2681 13.9581 37.2454 13.9286 37.2227C13.9586 37.2454 13.9881 37.2681 14.0181 37.2899Z" fill="#DBCDB0"/>
<path d="M14.5121 37.5996C14.3418 37.51 14.1779 37.4047 14.0185 37.29C14.1774 37.4051 14.3414 37.51 14.5121 37.5996Z" fill="#FDF2DC"/>
<path d="M13.9286 37.2223C13.7733 37.104 13.6221 36.9764 13.4814 36.832C13.6221 36.9764 13.7733 37.1035 13.9286 37.2223Z" fill="#FDF2DC"/>
<path opacity="0.55" d="M36.1624 13.7993C34.4102 12.0085 33.9189 10.0762 33.9189 10.0762L13.4815 30.8852C11.8746 32.5275 11.8746 35.1902 13.4815 36.8325C13.6227 36.9768 13.7734 37.104 13.9287 37.2228C13.9587 37.2455 13.9882 37.2682 14.0182 37.2901C14.1775 37.4047 14.3415 37.5105 14.5117 37.5996L37.0133 14.603C36.7268 14.37 36.4625 14.106 36.1624 13.7993Z" fill="#CABD9A"/>
<path opacity="0.49" d="M13.5341 32.5253C13.5785 32.5708 13.6367 32.5931 13.6948 32.5931C13.7529 32.5931 13.811 32.5703 13.8555 32.5253L34.4414 11.4861C34.3597 11.332 34.2866 11.1854 34.2244 11.0518L13.5345 32.1972C13.4451 32.2877 13.4451 32.4348 13.5341 32.5253Z" fill="#B2A383"/>
<path opacity="0.49" d="M13.1281 34.5787C13.1726 34.6241 13.2307 34.6464 13.2889 34.6464C13.347 34.6464 13.4051 34.6237 13.4496 34.5787L35.0639 12.5079C34.9713 12.3747 34.885 12.2438 34.8051 12.1162L13.1286 34.2506C13.0391 34.3406 13.0391 34.4877 13.1281 34.5787Z" fill="#B2A383"/>
<path opacity="0.49" d="M15.2004 34.2292C15.2449 34.2747 15.3026 34.297 15.3612 34.297C15.4193 34.297 15.4774 34.2742 15.5219 34.2292L35.8281 13.4759C35.7232 13.3589 35.6233 13.242 35.5284 13.126L15.2009 33.9011C15.1119 33.9916 15.1119 34.1383 15.2004 34.2292Z" fill="#B2A383"/>
<path opacity="0.49" d="M14.7309 36.4134C14.775 36.4584 14.8331 36.4811 14.8912 36.4811C14.9493 36.4811 15.0074 36.4584 15.0519 36.4129L36.6536 14.2966C36.5423 14.1978 36.4306 14.0934 36.318 13.9834L14.7305 36.0848C14.6419 36.1758 14.6419 36.3224 14.7309 36.4134Z" fill="#B2A383"/>
<path opacity="0.49" d="M17.0175 36.0866C17.0616 36.1311 17.1197 36.1539 17.1774 36.1539C17.2359 36.1539 17.2945 36.1311 17.3386 36.0852L37.6706 15.0933C37.5481 15.0103 37.4223 14.9198 37.2938 14.8232L17.0162 35.759C16.9276 35.8495 16.9286 35.9961 17.0175 36.0866Z" fill="#B2A383"/>
<path opacity="0.49" d="M17.8071 36.5654C17.7186 36.6559 17.7186 36.803 17.8071 36.8935C17.8516 36.939 17.9098 36.9612 17.9679 36.9612C18.026 36.9612 18.0841 36.9385 18.1282 36.8935L38.8158 15.7503C38.6845 15.6891 38.5402 15.6158 38.3871 15.5322L17.8071 36.5654Z" fill="#B2A383"/>
</g>
<defs>
<clipPath id="clip0_71_7290">
<rect width="84" height="71" fill="white"/>
</clipPath>
</defs>
</svg>
