<svg width="705" height="734" viewBox="0 0 705 734" fill="none" xmlns="http://www.w3.org/2000/svg">
<g clip-path="url(#clip0_69_1911)">
<path d="M665.322 640.412C692.347 580.179 677.634 514.099 668.677 451.462C659.516 387.308 673.105 329.802 693.199 269.824C702.156 243.065 709.019 214.124 702.616 186.581C688.107 124.012 617.216 100.526 564.341 88.4925C500.499 73.9539 435.55 65.4149 373.037 45.5756C273.979 14.1294 144.508 -42.3034 61.1341 54.7112C18.4594 104.378 0.0681311 175.485 0.868493 241.139C3.49096 456.524 167.991 644.315 362.547 697.083C428.228 714.895 497.774 718.678 564.443 704.498C603.116 696.265 647.595 679.903 665.322 640.412Z" fill="#6562E8" fill-opacity="0.16"/>
<path d="M452.188 123.296V148.522" stroke="#6B6BA5" stroke-width="1.5" stroke-miterlimit="10" stroke-linejoin="round"/>
<path d="M464.789 135.909H439.586" stroke="#6B6BA5" stroke-width="1.5" stroke-miterlimit="10" stroke-linejoin="round"/>
<path d="M68.0989 317.786V335.239" stroke="#6B6BA5" stroke-width="1.5" stroke-miterlimit="10" stroke-linejoin="round"/>
<path d="M77.7033 326.512H58.4946" stroke="#6B6BA5" stroke-width="1.5" stroke-miterlimit="10" stroke-linejoin="round"/>
<path d="M431.974 304.645V317.786" stroke="#6B6BA5" stroke-width="1.5" stroke-miterlimit="10" stroke-linejoin="round"/>
<path d="M438.548 311.207H425.401" stroke="#6B6BA5" stroke-width="1.5" stroke-miterlimit="10" stroke-linejoin="round"/>
<path d="M161.911 80.9419V103.798" stroke="#6B6BA5" stroke-width="1.5" stroke-miterlimit="10" stroke-linejoin="round"/>
<path d="M173.338 92.3613H150.502" stroke="#6B6BA5" stroke-width="1.5" stroke-miterlimit="10" stroke-linejoin="round"/>
<path d="M241.301 35.9968V49.1548" stroke="#6B6BA5" stroke-width="1.5" stroke-miterlimit="10" stroke-linejoin="round"/>
<path d="M247.857 42.5759H234.728" stroke="#6B6BA5" stroke-width="1.5" stroke-miterlimit="10" stroke-linejoin="round"/>
<path d="M621.388 557.544V570.685" stroke="#6B6BA5" stroke-width="1.5" stroke-miterlimit="10" stroke-linejoin="round"/>
<path d="M627.944 564.123H614.814" stroke="#6B6BA5" stroke-width="1.5" stroke-miterlimit="10" stroke-linejoin="round"/>
<path d="M92.4334 271.511C100.954 271.511 107.862 264.598 107.862 256.069C107.862 247.541 100.954 240.627 92.4334 240.627C83.9126 240.627 77.0051 247.541 77.0051 256.069C77.0051 264.598 83.9126 271.511 92.4334 271.511Z" stroke="#ED664A" stroke-width="1.5" stroke-miterlimit="10" stroke-linejoin="round"/>
<path d="M482.056 210.084C490.577 210.084 497.485 203.171 497.485 194.643C497.485 186.114 490.577 179.201 482.056 179.201C473.536 179.201 466.628 186.114 466.628 194.643C466.628 203.171 473.536 210.084 482.056 210.084Z" stroke="#ED664A" stroke-width="1.5" stroke-miterlimit="10" stroke-linejoin="round"/>
<path d="M85.9112 135.909C85.9112 140.835 81.9264 144.823 77.005 144.823C72.0837 144.823 68.0989 140.835 68.0989 135.909C68.0989 130.983 72.0837 126.995 77.005 126.995C81.9264 126.978 85.9112 130.983 85.9112 135.909Z" stroke="#ED664A" stroke-width="1.5" stroke-miterlimit="10" stroke-linejoin="round"/>
<path d="M417.806 220.106C417.806 225.032 413.821 229.02 408.9 229.02C403.979 229.02 399.994 225.032 399.994 220.106C399.994 215.181 403.979 211.192 408.9 211.192C413.821 211.192 417.806 215.181 417.806 220.106Z" stroke="#ED664A" stroke-width="1.5" stroke-miterlimit="10" stroke-linejoin="round"/>
<path d="M643.61 515.138C650.777 515.138 656.586 509.324 656.586 502.151C656.586 494.978 650.777 489.163 643.61 489.163C636.444 489.163 630.634 494.978 630.634 502.151C630.634 509.324 636.444 515.138 643.61 515.138Z" stroke="#ED664A" stroke-width="1.5" stroke-miterlimit="10" stroke-linejoin="round"/>
<path d="M621.388 596.251C621.388 601.177 617.403 605.165 612.482 605.165C607.56 605.165 603.575 601.177 603.575 596.251C603.575 591.325 607.56 587.337 612.482 587.337C617.386 587.337 621.388 591.325 621.388 596.251Z" stroke="#ED664A" stroke-width="1.5" stroke-miterlimit="10" stroke-linejoin="round"/>
<path d="M418.896 1394.25C418.896 1394.25 425.861 1111.88 424.55 1020.1C423.034 914.582 390.866 793.723 363.484 671.466L359.703 644.196L215.349 605.216C215.349 605.216 192.955 726.502 207.413 755.34C221.871 784.179 273.86 981.02 273.86 981.02L260.782 1389.29L418.896 1394.25Z" fill="#6B3429"/>
<path d="M119.373 647.69L115.763 672.012C115.763 672.012 99.1598 727.217 97.4399 745.574C94.2725 779.304 102.225 827.879 102.225 827.879L125.708 1060.24L104.524 1407.58H283.448C283.448 1407.58 307.969 1108.58 307.22 1055.81C306.454 1003.04 291.724 747.278 291.724 747.278C291.724 747.278 302.486 716.838 303.133 713.906C303.78 710.974 303.133 614.471 303.133 614.471L119.373 647.69Z" fill="#6B3429"/>
<path d="M125.078 707.054C138.309 707.497 151.677 707.14 164.602 704.191C177.527 701.225 190.078 695.533 199.835 686.295C204.314 682.051 208.247 676.937 210.018 670.938" stroke="black" stroke-width="1.5" stroke-miterlimit="10"/>
<path d="M338.434 671.057C344.939 687.369 354.237 702.214 370.976 704.447" stroke="black" stroke-width="1.5" stroke-miterlimit="10"/>
<path d="M307.85 670.938L305.279 731.581C305.279 731.581 320.963 722.394 321.541 718.832C322.12 715.269 328.115 670.938 328.115 670.938V647.673" stroke="black" stroke-width="1.5" stroke-miterlimit="10"/>
<path d="M115.763 672.012L363.484 670.938" stroke="black" stroke-width="1.5" stroke-miterlimit="10"/>
<path d="M316.297 663.353C318.309 663.353 319.941 661.72 319.941 659.706C319.941 657.692 318.309 656.059 316.297 656.059C314.284 656.059 312.652 657.692 312.652 659.706C312.652 661.72 314.284 663.353 316.297 663.353Z" stroke="black" stroke-width="1.5" stroke-miterlimit="10"/>
<path d="M232.446 671.057L235 646.889" stroke="black" stroke-width="1.5" stroke-miterlimit="10"/>
<path d="M136.402 671.057L138.957 646.889" stroke="black" stroke-width="1.5" stroke-miterlimit="10"/>
<path d="M221.309 671.057L223.846 646.889" stroke="black" stroke-width="1.5" stroke-miterlimit="10"/>
<path d="M300.391 260.433L298.501 307.423L306.539 313.303L263.745 352.658L186.178 312.349L194.556 299.6L210.546 225.39L264.324 224.913L300.391 260.433Z" fill="#D87D55"/>
<path d="M268.36 109.815C265.056 109.337 261.685 109.031 258.279 108.894C239.7 108.144 221.564 117.45 209.797 130.915C196.038 146.681 193.824 167.918 197.894 187.672C205.217 223.328 224.817 254.723 258.415 272.67C274.388 281.209 300.494 285.879 316.876 278.312C340.444 267.438 343.798 245.502 339.081 222.425C336.306 208.806 334.943 199.756 331.265 186.411C327.314 172.077 324.436 156.822 318.016 143.238C308.548 123.262 289.714 112.9 268.36 109.815Z" fill="#D87D55"/>
<path d="M295.078 115.081C285.934 109.781 278.543 107.088 268.053 106.014C256.917 104.872 245.643 104.923 234.728 107.36C221.445 110.309 209.15 116.803 198.745 124.916C189.039 132.466 181.427 141.38 176.472 152.271C171.755 162.634 169.353 173.917 169.422 185.217C169.507 198.409 173.015 211.806 179.86 223.413C187.098 235.702 203.769 256.956 203.769 256.956L224.612 232.975C228.802 230.486 226.435 215.164 230.266 212.215C233.655 209.607 234.728 205.653 234.268 201.665C233.553 195.393 230.164 189.802 228.155 183.854C226.128 177.837 224.272 170.866 225.77 164.594C227.014 159.43 231.237 156.123 236.873 155.765C244.332 155.288 251.467 157.947 258.551 159.873C267.968 162.447 277.828 164.287 287.671 164.816C295.998 165.259 305.688 165.31 312.567 159.856C317.676 155.816 320.009 145.573 320.009 145.573C320.009 145.573 314.815 126.518 295.078 115.081Z" fill="#1C150D"/>
<path d="M238.576 213.17C234.438 205.159 224.374 200.591 217.29 201.767C206.8 203.506 202.202 212.965 202.219 221.163C202.253 228.646 204.569 235.088 210.104 241.292C215.298 247.121 225.719 253.359 234.098 251.74C239.802 250.632 242.629 244.479 242.833 240.014" fill="#D87D55"/>
<path d="M237.265 233.793L212.948 216.97" stroke="black" stroke-width="1.5" stroke-miterlimit="10"/>
<path d="M243.208 241.889C241.778 245.468 236.533 261.234 212.607 244.888" stroke="black" stroke-width="1.5" stroke-miterlimit="10"/>
<path d="M239.223 212.692C237.929 211.022 234.506 206.318 228.58 203.727" stroke="black" stroke-width="1.5" stroke-miterlimit="10"/>
<path d="M303.457 187.552C305.006 195.785 307.595 202.705 312.482 209.488C314.049 211.653 315.752 213.817 316.586 216.357C318.749 223.004 307.373 225.663 307.373 225.663" stroke="black" stroke-width="1.5" stroke-miterlimit="10"/>
<path d="M312.312 184.212C317.42 176.849 324.743 174.48 331.776 178.434" stroke="black" stroke-width="1.5" stroke-miterlimit="10"/>
<path d="M250.02 200.284C257.376 187.706 273.554 182.337 286.956 188.081" stroke="black" stroke-width="1.5" stroke-miterlimit="10"/>
<path d="M284.708 205.807C285.423 209.403 284.231 212.675 282.017 213.118C279.803 213.562 277.436 211.005 276.721 207.409C276.006 203.812 277.198 200.54 279.412 200.097C281.608 199.654 283.992 202.21 284.708 205.807Z" fill="black"/>
<path d="M329.256 195.955C329.971 199.551 328.779 202.824 326.565 203.267C324.351 203.71 321.984 201.154 321.269 197.557C320.554 193.961 321.746 190.689 323.96 190.245C326.173 189.819 328.54 192.376 329.256 195.955Z" fill="black"/>
<path d="M321.967 234.679L294.295 238.327C294.295 238.327 296.918 249.286 308.003 248.28C320.452 247.172 321.967 234.679 321.967 234.679Z" fill="white"/>
<path d="M251.74 268.818C251.74 268.818 270.369 283.919 299.489 283.084" stroke="black" stroke-width="1.5" stroke-miterlimit="10"/>
<path d="M511.67 303.707C522.773 279.744 538.968 257.211 561.889 243.133C562.893 242.519 563.966 241.906 565.141 241.906C566.912 241.906 568.394 243.337 568.973 244.94C569.569 246.542 569.449 248.314 569.33 250.019C569.381 249.235 575.359 245.519 576.295 244.837C576.619 244.599 576.959 244.343 577.351 244.19C578.594 243.729 579.973 244.514 580.876 245.451C583.515 248.246 583.107 252.03 583.124 255.541C584.793 253.802 588.062 254.774 589.322 256.802C590.565 258.848 590.361 261.404 589.935 263.739C589.288 267.301 586.853 274.17 586.853 274.17C586.853 274.17 591.502 269.994 593.46 271.801C595.419 273.608 595.129 280.323 594.584 282.897C591.553 297.06 583.192 310.116 579.769 324.944C578.168 331.881 578.492 339.074 578.407 346.164C578.236 359.458 580.62 370.486 576.993 383.337C574.558 391.91 561.769 405.733 561.769 405.733L495.867 372.77C495.867 372.77 505.574 364.231 504.467 355.351C503.309 346.488 511.67 303.707 511.67 303.707Z" fill="#D87D55"/>
<path d="M426.338 404.472L444.44 429.901L499.103 365.679L570.846 392.404C570.846 392.404 517.817 520.968 470 556.709C443.895 576.224 407.316 558.805 389.794 533.154C371.453 506.31 329.698 451.104 329.698 451.104" fill="#D87D55"/>
<path d="M604.682 341.613L485.513 309.605L551.705 148.521L670.874 180.53L604.682 341.613Z" fill="white"/>
<path d="M558.772 166.776C559.726 167.031 560.458 167.355 560.986 167.747C561.514 168.139 561.82 168.616 561.939 169.179C562.042 169.741 561.956 170.372 561.667 171.088C561.463 171.582 561.207 171.974 560.884 172.298C560.56 172.622 560.186 172.86 559.794 173.031C559.402 173.201 558.993 173.32 558.585 173.406L559.777 178.894L557.308 178.229L556.473 173.44L555.298 173.133L553.646 177.241L551.433 176.644L555.758 165.923L558.772 166.776ZM557.87 168.599L557.188 168.412L556.013 171.309L556.729 171.497C557.461 171.684 558.04 171.701 558.466 171.548C558.891 171.377 559.198 171.054 559.385 170.559C559.589 170.048 559.572 169.639 559.317 169.332C559.079 169.042 558.585 168.787 557.87 168.599Z" fill="#D85266"/>
<path d="M567.116 180.888L561.088 179.286L565.414 168.565L571.442 170.167L570.693 172.025L566.878 171.002L565.924 173.355L569.466 174.292L568.717 176.15L565.175 175.195L564.068 177.956L567.883 178.979L567.116 180.888Z" fill="#D85266"/>
<path d="M576.67 180.138C576.414 180.769 576.039 181.28 575.546 181.672C575.052 182.064 574.473 182.303 573.792 182.405C573.11 182.507 572.361 182.439 571.544 182.234C571.186 182.132 570.829 182.013 570.505 181.876C570.181 181.74 569.875 181.57 569.602 181.399C569.33 181.212 569.075 181.024 568.836 180.803L569.688 178.689C570.096 179.047 570.522 179.388 570.982 179.712C571.442 180.036 571.935 180.274 572.463 180.411C572.821 180.513 573.145 180.53 573.4 180.496C573.655 180.462 573.877 180.36 574.047 180.223C574.217 180.087 574.354 179.899 574.439 179.678C574.541 179.405 574.558 179.149 574.456 178.911C574.354 178.672 574.183 178.434 573.945 178.178C573.706 177.922 573.434 177.667 573.11 177.36C572.923 177.172 572.702 176.968 572.497 176.712C572.276 176.474 572.089 176.184 571.935 175.877C571.782 175.57 571.68 175.212 571.663 174.82C571.646 174.428 571.731 173.985 571.918 173.491C572.174 172.843 572.548 172.349 573.008 171.957C573.485 171.582 574.03 171.343 574.66 171.241C575.29 171.139 575.971 171.19 576.687 171.377C577.231 171.531 577.725 171.718 578.168 171.991C578.611 172.247 579.054 172.57 579.496 172.962L578.066 174.548C577.657 174.224 577.3 173.951 576.959 173.729C576.618 173.525 576.261 173.354 575.852 173.252C575.58 173.184 575.324 173.167 575.086 173.201C574.847 173.235 574.66 173.32 574.49 173.457C574.319 173.593 574.2 173.764 574.115 173.985C574.013 174.241 573.996 174.479 574.081 174.684C574.149 174.888 574.302 175.127 574.541 175.366C574.762 175.604 575.052 175.894 575.409 176.218C575.835 176.627 576.193 177.019 576.448 177.394C576.721 177.769 576.874 178.178 576.925 178.621C576.993 179.081 576.908 179.576 576.67 180.138Z" fill="#D85266"/>
<path d="M577.385 183.615L581.71 172.894L583.924 173.491L579.599 184.212L577.385 183.615Z" fill="#D85266"/>
<path d="M588.607 179.951L592.762 181.059L590.514 186.615C589.884 186.649 589.254 186.649 588.624 186.598C587.994 186.547 587.296 186.427 586.546 186.223C585.508 185.95 584.707 185.507 584.145 184.893C583.583 184.28 583.294 183.513 583.243 182.593C583.192 181.672 583.413 180.615 583.89 179.405C584.35 178.28 584.946 177.36 585.695 176.661C586.444 175.962 587.33 175.485 588.317 175.247C589.305 175.008 590.395 175.059 591.57 175.366C592.132 175.519 592.643 175.724 593.137 175.979C593.63 176.252 594.056 176.542 594.414 176.849L592.949 178.468C592.694 178.212 592.387 177.974 592.03 177.752C591.672 177.53 591.263 177.36 590.804 177.241C590.157 177.07 589.544 177.07 588.948 177.241C588.352 177.411 587.807 177.752 587.33 178.212C586.853 178.689 586.461 179.303 586.172 180.036C585.882 180.735 585.729 181.382 585.695 181.979C585.661 182.575 585.78 183.07 586.07 183.479C586.359 183.888 586.802 184.178 587.449 184.348C587.773 184.433 588.045 184.484 588.266 184.518C588.505 184.553 588.709 184.57 588.913 184.587L589.816 182.354L587.841 181.826L588.607 179.951Z" fill="#D85266"/>
<path d="M602.128 190.228L599.301 189.478L598.024 180.155L597.956 180.138C597.837 180.479 597.717 180.82 597.598 181.178C597.479 181.519 597.343 181.876 597.224 182.217C597.104 182.558 596.985 182.899 596.849 183.257L594.822 188.302L592.847 187.774L597.172 177.053L599.965 177.803L601.276 187.041L601.328 187.058C601.447 186.717 601.566 186.393 601.685 186.052C601.804 185.728 601.924 185.388 602.043 185.064C602.162 184.74 602.281 184.399 602.4 184.075L604.444 178.996L606.436 179.524L602.128 190.228Z" fill="#D85266"/>
<path d="M611.17 192.648L611.443 189.887L607.628 188.865L605.84 191.217L603.456 190.586L611.494 180.803L614.201 181.536L613.571 193.296L611.17 192.648ZM611.681 187.842L611.919 185.149C611.936 184.961 611.954 184.74 611.988 184.45C612.022 184.16 612.039 183.888 612.073 183.581C612.107 183.291 612.141 183.036 612.175 182.831C612.039 183.018 611.885 183.257 611.681 183.53C611.477 183.802 611.289 184.058 611.102 184.314C610.915 184.552 610.796 184.74 610.71 184.842L608.956 187.143L611.681 187.842Z" fill="#D85266"/>
<path d="M618.901 194.711L616.688 194.114L620.247 185.285L617.403 184.535L618.169 182.644L626.071 184.757L625.304 186.649L622.461 185.882L618.901 194.711Z" fill="#D85266"/>
<path d="M623.363 195.904L627.689 185.183L629.902 185.78L625.577 196.5L623.363 195.904Z" fill="#D85266"/>
<path d="M639.915 194.353C639.575 195.188 639.183 195.904 638.706 196.534C638.229 197.165 637.701 197.659 637.088 198.034C636.475 198.409 635.811 198.648 635.079 198.75C634.347 198.852 633.563 198.784 632.695 198.546C631.844 198.324 631.145 197.983 630.634 197.557C630.107 197.131 629.749 196.62 629.545 196.023C629.34 195.427 629.272 194.762 629.34 194.029C629.408 193.296 629.613 192.512 629.953 191.677C630.396 190.569 630.975 189.649 631.656 188.916C632.337 188.183 633.155 187.689 634.074 187.433C634.994 187.177 636.033 187.194 637.174 187.501C638.315 187.808 639.149 188.285 639.694 188.933C640.239 189.58 640.528 190.364 640.545 191.285C640.579 192.222 640.375 193.245 639.915 194.353ZM632.286 192.325C631.98 193.074 631.809 193.739 631.775 194.336C631.741 194.932 631.861 195.427 632.133 195.819C632.405 196.211 632.848 196.5 633.478 196.654C634.108 196.824 634.67 196.807 635.181 196.62C635.692 196.432 636.135 196.091 636.543 195.597C636.935 195.103 637.293 194.489 637.599 193.739C638.059 192.614 638.195 191.677 638.059 190.927C637.906 190.177 637.361 189.666 636.424 189.41C635.794 189.24 635.232 189.257 634.721 189.444C634.211 189.632 633.751 189.972 633.359 190.467C632.933 190.944 632.593 191.575 632.286 192.325Z" fill="#D85266"/>
<path d="M649.213 202.79L646.386 202.04L645.109 192.717L645.041 192.699C644.922 193.04 644.803 193.381 644.683 193.739C644.564 194.08 644.445 194.438 644.309 194.779C644.19 195.12 644.07 195.461 643.934 195.819L641.908 200.864L639.932 200.335L644.258 189.615L647.05 190.364L648.362 199.602L648.413 199.619C648.532 199.278 648.651 198.955 648.77 198.614C648.89 198.29 649.009 197.949 649.128 197.625C649.247 197.301 649.366 196.96 649.486 196.637L651.529 191.558L653.521 192.086L649.213 202.79Z" fill="#D85266"/>
<mask id="mask0_69_1911" style="mask-type:luminance" maskUnits="userSpaceOnUse" x="501" y="165" width="154" height="160">
<path d="M600.119 324.995L501.453 298.492L556.269 165.122L654.935 191.643L600.119 324.995Z" fill="white"/>
</mask>
<g mask="url(#mask0_69_1911)">
<path d="M530.998 182.609L667.315 219.237" stroke="#E8D9D1" stroke-width="3" stroke-miterlimit="10"/>
<path d="M525.157 195.375L661.457 232.003" stroke="#E8D9D1" stroke-width="3" stroke-miterlimit="10"/>
<path d="M519.299 208.141L655.599 244.769" stroke="#E8D9D1" stroke-width="3" stroke-miterlimit="10"/>
<path d="M513.441 220.907L649.758 257.535" stroke="#E8D9D1" stroke-width="3" stroke-miterlimit="10"/>
<path d="M507.583 233.69L643.9 270.301" stroke="#E8D9D1" stroke-width="3" stroke-miterlimit="10"/>
<path d="M501.725 246.456L638.042 283.067" stroke="#E8D9D1" stroke-width="3" stroke-miterlimit="10"/>
<path d="M495.884 259.222L632.184 295.85" stroke="#E8D9D1" stroke-width="3" stroke-miterlimit="10"/>
<path d="M490.026 271.988L626.343 308.616" stroke="#E8D9D1" stroke-width="3" stroke-miterlimit="10"/>
<path d="M484.168 284.754L620.485 321.382" stroke="#E8D9D1" stroke-width="3" stroke-miterlimit="10"/>
</g>
<path d="M444.44 429.901C444.44 429.901 412.493 460.172 407.538 466.41C402.582 472.648 395.89 490.288 395.975 502.816" stroke="black" stroke-width="1.5" stroke-miterlimit="10"/>
<path d="M490.724 384.394C490.724 384.394 499.665 371.628 500.227 343.641C500.397 335.409 501.674 309.23 503.649 301.253C507.396 286.016 525.923 260.484 529.431 263.023C532.939 265.563 535.153 272.67 531.747 281.26C529.84 286.067 524.816 299.344 524.169 304.491C523.284 311.735 528.069 316.985 532.667 326.631C535.408 332.358 543.821 349.573 543.157 368.543" fill="#D87D55"/>
<path d="M295.061 309.775C306.488 311.599 317.897 313.439 329.324 315.263C337.736 316.61 346.233 317.973 354.169 321.075C372.322 328.165 385.809 343.539 397.678 358.998C409.82 374.832 441.255 422.64 441.255 422.64L354.22 496.663L299.659 424.038" fill="#FCB05E"/>
<path d="M429.829 407.625L346.182 475.818" stroke="black" stroke-width="1.5" stroke-miterlimit="10"/>
<path d="M376.221 390.53C376.221 390.53 365.97 453.916 366.157 478.613C366.345 503.31 360.385 647.673 360.385 647.673H119.373C119.373 647.673 90.9519 489.061 94.0171 457.087C96.8099 427.958 153.687 317.769 153.687 317.769L175.331 310.542L268.411 331.268L320.332 313.065L376.221 390.53Z" fill="#FCB05E"/>
<path d="M257.206 335.989L263.575 419.368L285.763 417.988L278.765 331.881" stroke="black" stroke-width="1.5" stroke-miterlimit="10"/>
<path d="M268.428 331.285L193.518 289.288L175.331 310.559L238.985 376.298L268.428 331.285Z" fill="#FCB05E"/>
<path d="M301.209 297.895L268.428 331.285L299.795 372.77L320.349 313.081L301.209 297.895Z" fill="#FCB05E"/>
<path d="M175.331 310.559L238.985 376.298L268.428 331.285L299.795 372.77L320.349 313.082" stroke="black" stroke-width="1.5" stroke-miterlimit="10"/>
<path d="M366.157 486.522C366.157 486.522 366.583 431.18 368.15 419.368C369.717 407.557 374.859 384.394 374.859 384.394" stroke="black" stroke-width="1.5" stroke-miterlimit="10"/>
<path d="M265.482 356.271L274.95 355.845" stroke="black" stroke-width="1.5" stroke-miterlimit="10"/>
<path d="M266.742 379.298L276.21 378.872" stroke="black" stroke-width="1.5" stroke-miterlimit="10"/>
<path d="M268.751 403.653L278.22 403.227" stroke="black" stroke-width="1.5" stroke-miterlimit="10"/>
<path d="M530.078 321.57C531.151 323.598 545.387 345.551 544.604 364.725" stroke="black" stroke-width="1.5" stroke-miterlimit="10"/>
<path d="M546.699 540.756L440.693 528.637L494.896 410.369L600.885 422.487L546.699 540.756Z" fill="#C7D1DD"/>
<path d="M545.966 536.273H439.28L479.707 412.619H586.393L545.966 536.273Z" fill="white"/>
<path d="M571.544 429.901H482.993" stroke="#C7D1DD" stroke-miterlimit="10"/>
<path d="M568.036 440.025H479.485" stroke="#C7D1DD" stroke-miterlimit="10"/>
<path d="M564.528 450.15H475.96" stroke="#C7D1DD" stroke-miterlimit="10"/>
<path d="M561.02 460.274H472.452" stroke="#C7D1DD" stroke-miterlimit="10"/>
<path d="M557.512 470.398H468.944" stroke="#C7D1DD" stroke-miterlimit="10"/>
<path d="M553.987 480.522H465.436" stroke="#C7D1DD" stroke-miterlimit="10"/>
<path d="M550.479 490.646H461.928" stroke="#C7D1DD" stroke-miterlimit="10"/>
<path d="M546.971 500.77H458.403" stroke="#C7D1DD" stroke-miterlimit="10"/>
<path d="M543.463 510.895H454.895" stroke="#C7D1DD" stroke-miterlimit="10"/>
<path d="M539.955 521.019H451.387" stroke="#C7D1DD" stroke-miterlimit="10"/>
<path d="M432.196 521.394H532.718L568.036 368.287H467.514L432.196 521.394Z" fill="#29344F"/>
<path d="M436.606 479.516L517.749 482.687L551.075 360.225L469.949 357.055L436.606 479.516Z" fill="#F7A5A4"/>
<path d="M424.72 521.394H525.242L560.577 368.287H460.055L424.72 521.394Z" fill="white"/>
<path d="M414.741 521.394H515.263L550.581 368.287H450.059L414.741 521.394Z" fill="#29344F"/>
<path d="M518.465 521.394L553.8 368.287" stroke="#E0D7C3" stroke-miterlimit="10"/>
<path d="M516.881 374.9H478.838" stroke="black" stroke-miterlimit="10"/>
<path d="M521.768 521.394L557.103 368.287" stroke="#E0D7C3" stroke-miterlimit="10"/>
<path d="M509.95 521.394L545.268 368.287" stroke="black" stroke-miterlimit="10"/>
<path d="M478.463 365.492C476.13 366.668 474.223 368.543 472.486 370.503C468.093 375.48 464.534 381.121 460.992 386.746C464.806 384.956 468.638 383.149 472.452 381.36C472.963 383.763 474.819 388.979 475.024 388.74C478.157 385.28 489.992 368.287 489.992 368.287H493.858C493.858 368.287 492.972 365.935 491.201 365.765C488.596 365.492 480.848 364.299 478.463 365.492Z" fill="#C95050"/>
<path d="M477.271 528.467H371.232L419.305 387.513H525.344L477.271 528.467Z" fill="#ED7951"/>
<path d="M497.621 387.513L449.548 528.467" stroke="black" stroke-miterlimit="10"/>
<path d="M496.651 410.625L459.595 517.473C458.982 519.263 460.14 521.189 461.826 521.189H471.976C472.963 521.189 473.849 520.507 474.206 519.468L511.261 412.619C511.874 410.829 510.716 408.903 509.031 408.903H498.881C497.894 408.903 497.008 409.585 496.651 410.625Z" fill="#D36244"/>
<path d="M494.471 396.734H522.194" stroke="black" stroke-miterlimit="10"/>
<path d="M491.831 404.063H519.554" stroke="black" stroke-miterlimit="10"/>
<path d="M444.661 528.467H338.621L386.694 387.513H492.734L444.661 528.467Z" fill="#777744"/>
<path d="M465.01 387.513L416.938 528.467" stroke="black" stroke-miterlimit="10"/>
<path d="M464.04 410.625L426.985 517.473C426.372 519.263 427.53 521.189 429.215 521.189H439.365C440.352 521.189 441.238 520.507 441.596 519.468L478.651 412.619C479.264 410.829 478.106 408.903 476.42 408.903H466.271C465.283 408.903 464.397 409.585 464.04 410.625Z" fill="#565530"/>
<path d="M461.86 396.734H489.583" stroke="black" stroke-miterlimit="10"/>
<path d="M459.221 404.063H486.944" stroke="black" stroke-miterlimit="10"/>
<path d="M315.513 564.668H412.544L447.232 409.073H350.201L315.513 564.668Z" fill="#1A1A1A"/>
<path d="M309.025 564.668H406.056L440.744 409.073H343.713L309.025 564.668Z" fill="white"/>
<path d="M294.005 564.668H391.037L425.725 409.073H328.693L294.005 564.668Z" fill="#1A1A1A"/>
<path d="M383.476 564.668L418.164 409.073" stroke="#686261" stroke-miterlimit="10"/>
<path d="M395.737 427.686H338.094" stroke="#686261" stroke-miterlimit="10"/>
<path d="M394.783 564.668L429.471 409.073" stroke="#DDD2D0" stroke-miterlimit="10"/>
<path d="M402.19 564.668L436.878 409.073" stroke="#DDD2D0" stroke-miterlimit="10"/>
<path d="M271.391 465.728C258.33 441.491 226.111 396.768 221.19 400.228C216.268 403.688 235.988 439.787 248.232 457.393C261.293 476.176 275.171 494.447 289.05 512.701L293.988 518.121C289.663 499.663 280.484 482.584 271.391 465.728Z" fill="#757A47"/>
<path d="M229.483 413.13C252.216 443.843 273.52 479.534 294.005 518.121" stroke="black" stroke-width="0.75" stroke-miterlimit="10"/>
<path d="M273.707 454.718C267.866 431.759 250.633 387.973 246.035 390.018C241.437 392.081 250.343 426.305 256.78 443.468C263.66 461.774 271.272 479.789 278.884 497.805L281.796 503.31C281.847 486.846 277.76 470.671 273.707 454.718Z" fill="#757A47"/>
<path d="M250.207 402.478C262.536 432.663 272.787 466.819 281.813 503.31" stroke="black" stroke-width="0.75" stroke-miterlimit="10"/>
<path d="M290.446 471.318C292.098 447.695 289.425 400.688 284.418 401.199C279.412 401.711 277.147 437.009 277.896 455.331C278.696 474.88 280.28 494.379 281.881 513.86L282.937 519.996C288.113 504.384 289.305 487.749 290.446 471.318Z" fill="#757A47"/>
<path d="M284.469 414.357C286.734 446.877 285.764 482.55 282.92 520.013" stroke="black" stroke-width="0.75" stroke-miterlimit="10"/>
<path d="M291.553 459.729C297.326 436.753 314.457 392.916 319.072 394.961C323.67 397.007 314.849 431.265 308.446 448.445C301.617 466.768 294.04 484.817 286.479 502.833L283.567 508.338C283.499 491.891 287.535 475.699 291.553 459.729Z" fill="#757A47"/>
<path d="M314.934 407.455C302.673 437.657 292.524 471.864 283.584 508.355" stroke="black" stroke-width="0.75" stroke-miterlimit="10"/>
<path d="M250.02 462.097C240.347 452.706 229.108 445.48 216.575 445.071C213.697 444.985 202.713 444.764 201.18 450.116C199.733 455.178 208.401 457.308 210.427 457.871C227.729 462.677 243.923 471.966 258.04 485.175C266.35 492.964 274.422 501.844 281.574 511.542C274.473 491.601 262.91 474.625 250.02 462.097Z" fill="#757A47"/>
<path d="M211.79 449.911C211.79 449.911 257.853 457.7 281.574 511.525" stroke="black" stroke-width="0.75" stroke-miterlimit="10"/>
<path d="M320.707 487.766L355.242 544.062L407.129 434.674L320.707 487.766ZM341.09 491.584L375.183 470.636L354.714 513.792L341.09 491.584Z" fill="#FCD98D"/>
<path d="M324.47 485.465L329.749 494.055" stroke="black" stroke-miterlimit="10"/>
<path d="M329.851 482.158L333.189 487.612" stroke="black" stroke-miterlimit="10"/>
<path d="M335.216 478.869L338.553 484.306" stroke="black" stroke-miterlimit="10"/>
<path d="M340.58 475.562L343.917 480.999" stroke="black" stroke-miterlimit="10"/>
<path d="M345.944 472.273L351.223 480.863" stroke="black" stroke-miterlimit="10"/>
<path d="M351.325 468.966L354.663 474.403" stroke="black" stroke-miterlimit="10"/>
<path d="M356.689 465.66L360.027 471.114" stroke="black" stroke-miterlimit="10"/>
<path d="M362.053 462.37L365.391 467.807" stroke="black" stroke-miterlimit="10"/>
<path d="M367.417 459.063L372.696 467.671" stroke="black" stroke-miterlimit="10"/>
<path d="M372.799 455.774L376.136 461.211" stroke="black" stroke-miterlimit="10"/>
<path d="M378.163 452.468L381.5 457.922" stroke="black" stroke-miterlimit="10"/>
<path d="M383.527 449.178L386.864 454.615" stroke="black" stroke-miterlimit="10"/>
<path d="M388.891 445.872L394.17 454.462" stroke="black" stroke-miterlimit="10"/>
<path d="M364.471 526.95L351.717 537.466L289.953 526.95L241.301 448.258L254.038 437.742H328.557L364.471 526.95Z" fill="#9D88D3"/>
<path d="M351.717 537.466L362.632 528.484L327.484 441.185H249.866L241.301 448.258L289.953 526.95L351.717 537.466Z" fill="white"/>
<path d="M359.976 530.512L324.828 443.23H247.227" stroke="black" stroke-width="0.75" stroke-miterlimit="10"/>
<path d="M356.229 533.683L321.099 446.383H243.48" stroke="black" stroke-width="0.75" stroke-miterlimit="10"/>
<path d="M351.717 537.466H277.198L241.301 448.258H315.803L351.717 537.466Z" fill="#9D88D3"/>
<path d="M347.476 537.466L312.601 451.633H243.327" stroke="black" stroke-width="0.75" stroke-miterlimit="10"/>
<path d="M263.524 457.99H294.55" stroke="black" stroke-width="0.75" stroke-miterlimit="10"/>
<path d="M377.85 657.365H579.524V478.625H377.85V657.365Z" fill="#F7DBBF"/>
<path d="M533.024 620.624H454.708V657.354H533.024V620.624Z" fill="#E0B996"/>
<path d="M533.024 478.613H454.708V506.923H533.024V478.613Z" fill="#E0B996"/>
<path d="M507.14 478.613V506.94" stroke="black" stroke-width="1.5" stroke-miterlimit="10"/>
<path d="M507.14 620.624V657.354" stroke="black" stroke-width="1.5" stroke-miterlimit="10"/>
<path d="M561.02 524.036H500.363" stroke="white" stroke-miterlimit="10"/>
<path d="M561.02 536.273H500.363" stroke="white" stroke-miterlimit="10"/>
<path d="M561.02 548.528H517.919" stroke="white" stroke-miterlimit="10"/>
<path d="M237.844 478.613V657.354H377.856V478.613H237.844ZM340.035 509.003H278.918C275.512 509.003 272.753 506.242 272.753 502.833C272.753 499.424 275.512 496.663 278.918 496.663H340.035C343.44 496.663 346.199 499.424 346.199 502.833C346.182 506.242 343.423 509.003 340.035 509.003Z" fill="#F2D4B3"/>
<path d="M377.839 478.613V657.354" stroke="black" stroke-width="1.5" stroke-miterlimit="10"/>
<path d="M82.761 460.785C82.761 460.785 87.0693 550.675 89.4023 567.208C91.7182 583.758 95.6179 644.707 167.565 638.963C239.513 633.22 329.698 613.091 329.698 613.091L311.137 542.562L189.226 543.159L184.135 443.451" fill="#D87D55"/>
<path d="M304.427 543.057C331.095 530.359 359.601 521.53 388.772 516.894C389.283 516.809 389.828 516.741 390.338 516.86C391.479 517.167 392.126 518.053 391.956 519.28C391.479 522.502 388.142 525.041 385.775 526.984C382.25 529.882 378.35 532.046 374.382 534.262C372.696 535.216 369.682 536.546 370.466 539.017C388.584 542.409 407.521 541.318 425.112 535.881C429.216 534.62 433.388 533.086 437.662 533.461C441.936 533.836 446.364 536.767 446.789 541.028C445.512 541.898 444.235 542.767 442.975 543.636C448.016 542.477 453.039 543.977 455.951 548.238C456.394 548.869 456.768 549.602 456.734 550.369C456.615 553.13 451.66 555.226 451.66 555.226C451.66 555.226 455.338 558.243 455.015 559.862C454.163 564.242 449.582 567.992 446.398 570.054C448.407 571.35 448.186 573.514 447.76 575.287C447.334 577.06 441.613 581.798 440.08 582.803C401.867 607.926 365.016 610.023 318.612 615.17C306.096 616.551 276.397 620.624 276.397 620.624" fill="#D87D55"/>
<path d="M370.653 539C370.653 539 359.124 536.29 353.965 535.012" stroke="black" stroke-width="1.5" stroke-miterlimit="10"/>
<path d="M379.695 558.447C379.695 558.447 394.289 557.629 408.73 555.38C421.025 553.471 443.145 543.619 443.145 543.619" stroke="black" stroke-width="1.5" stroke-miterlimit="10"/>
<path d="M386.745 576.037C386.745 576.037 411.148 572.696 419.969 569.56C432.349 565.146 451.864 555.226 451.864 555.226" stroke="black" stroke-width="1.5" stroke-miterlimit="10"/>
<path d="M396.418 590.507C396.418 590.507 412.459 587.116 420.446 583.417C428.432 579.718 446.585 570.054 446.585 570.054" stroke="black" stroke-width="1.5" stroke-miterlimit="10"/>
<path d="M190.469 406.892L192.853 505.747L79.5425 517.014C79.5425 517.014 75.4725 437.708 75.8642 415.738C76.2388 394.876 79.5425 366.685 96.878 347.92C118.198 324.842 137.696 322.575 170.869 312.076" fill="#FCB05E"/>
<path d="M190.469 406.892L192.853 505.747" stroke="black" stroke-width="1.5" stroke-miterlimit="10"/>
<path d="M78.2822 491.124L192.853 480.198" stroke="black" stroke-width="1.5" stroke-miterlimit="10"/>
<path d="M189.55 542.869C168.229 542.767 146.364 546.824 127.224 556.453" stroke="black" stroke-width="1.5" stroke-miterlimit="10"/>
<path d="M307.816 619.806L294.687 622.499L284.333 541.54L297.735 540.96L307.816 619.806Z" fill="#1A1A1A"/>
<path d="M310.149 594.138C310.524 600.597 305.33 606.137 298.552 606.512C291.775 606.887 285.985 601.961 285.61 595.501C285.235 589.042 290.429 583.502 297.207 583.127C303.984 582.752 309.774 587.678 310.149 594.138Z" fill="#E0C9C6"/>
<path d="M296.322 584.423L296.713 587.695" stroke="black" stroke-width="0.5" stroke-miterlimit="10"/>
<path d="M299.046 601.944L299.421 605.216" stroke="black" stroke-width="0.5" stroke-miterlimit="10"/>
<path d="M308.259 593.268L304.989 593.66" stroke="black" stroke-width="0.5" stroke-miterlimit="10"/>
<path d="M290.753 595.979L287.483 596.37" stroke="black" stroke-width="0.5" stroke-miterlimit="10"/>
</g>
<defs>
<clipPath id="clip0_69_1911">
<rect width="705" height="734" fill="white"/>
</clipPath>
</defs>
</svg>
